<svg width="1em" height="1em" viewBox="0 0 576 512" version="1.1" xmlns="http://www.w3.org/2000/svg" xmlns:xlink="http://www.w3.org/1999/xlink" xml:space="preserve" xmlns:serif="http://www.serif.com/" style="fill-rule:evenodd;clip-rule:evenodd;stroke-linejoin:round;stroke-miterlimit:2;"><path d="M32,256l0,-159.813c0,-17.765 14.422,-32.187 32.187,-32.187l447.626,0c17.765,0 32.187,14.422 32.187,32.187l2,159.813c-0.383,-0.489 -513.899,-0.152 -514,0Z" style="fill-opacity:0.4;"/><path d="M0,96c0,-35.3 28.7,-64 64,-64l448,0c35.3,0 64,28.7 64,64l0,320c0,35.3 -28.7,64 -64,64l-448,0c-35.3,0 -64,-28.7 -64,-64l0,-320Zm544,128l0,-128c0,-17.7 -14.3,-32 -32,-32l-448,0c-17.7,0 -32,14.3 -32,32l0,128l512,0Zm-512,32l0,160c0,17.7 14.3,32 32,32l448,0c17.7,0 32,-14.3 32,-32l0,-160l-512,0Z"/><g><path d="M479,297.96l0,0.08c0,8.809 -7.151,15.96 -15.96,15.96l-396.08,0c-8.809,0 -15.96,-7.151 -15.96,-15.96l0,-0.08c0,-8.809 7.151,-15.96 15.96,-15.96l396.08,0c8.809,0 15.96,7.151 15.96,15.96Z"/><path d="M406,351.46l0,0.08c0,8.809 -7.151,15.96 -15.96,15.96l-323.08,0c-8.809,0 -15.96,-7.151 -15.96,-15.96l0,-0.08c0,-8.809 7.151,-15.96 15.96,-15.96l323.08,0c8.809,0 15.96,7.151 15.96,15.96Z"/><path d="M218,404.96l0,0.08c0,8.809 -7.151,15.96 -15.96,15.96l-135.08,0c-8.809,0 -15.96,-7.151 -15.96,-15.96l0,-0.08c0,-8.809 7.151,-15.96 15.96,-15.96l135.08,-0c8.809,-0 15.96,7.151 15.96,15.96Z" style="fill-opacity:0.4;"/></g><path d="M108.996,190l0,-93.057l62.778,0l0,10.982l-50.463,-0l-0,28.818l43.671,0l0,10.982l-43.671,-0l-0,42.275l-12.315,0Z" style="fill-rule:nonzero;"/><path d="M187.263,190l-0,-93.057l12.314,0l0,82.076l45.83,-0l0,10.981l-58.144,0Z" style="fill-rule:nonzero;"/><path d="M321.135,96.943l12.314,0l0,53.765c0,9.352 -1.058,16.779 -3.174,22.28c-2.115,5.502 -5.935,9.977 -11.457,13.426c-5.523,3.448 -12.769,5.173 -21.741,5.173c-8.717,-0 -15.848,-1.502 -21.391,-4.507c-5.544,-3.004 -9.501,-7.353 -11.871,-13.044c-2.369,-5.692 -3.554,-13.468 -3.554,-23.328l-0,-53.765l12.314,0l0,53.702c0,8.082 0.751,14.038 2.254,17.868c1.502,3.83 4.083,6.782 7.744,8.855c3.66,2.074 8.135,3.111 13.425,3.111c9.056,-0 15.509,-2.053 19.36,-6.158c3.851,-4.105 5.777,-11.997 5.777,-23.676l-0,-53.702Z" style="fill-rule:nonzero;"/><rect x="356.047" y="96.943" width="12.314" height="93.057" style="fill-rule:nonzero;"/><path d="M390.07,190l0,-93.057l32.056,0c7.236,0 12.759,0.445 16.567,1.333c5.332,1.228 9.882,3.449 13.648,6.665c4.909,4.148 8.58,9.448 11.013,15.901c2.433,6.454 3.65,13.828 3.65,22.122c-0,7.067 -0.825,13.33 -2.476,18.789c-1.65,5.459 -3.766,9.976 -6.347,13.552c-2.582,3.576 -5.406,6.39 -8.474,8.443c-3.068,2.052 -6.771,3.607 -11.109,4.665c-4.337,1.058 -9.32,1.587 -14.949,1.587l-33.579,0Zm12.315,-10.981l19.868,-0c6.136,-0 10.95,-0.572 14.441,-1.714c3.491,-1.143 6.273,-2.751 8.347,-4.825c2.92,-2.919 5.195,-6.844 6.824,-11.774c1.629,-4.93 2.444,-10.908 2.444,-17.933c-0,-9.733 -1.598,-17.212 -4.793,-22.439c-3.195,-5.226 -7.078,-8.728 -11.648,-10.505c-3.301,-1.269 -8.611,-1.904 -15.932,-1.904l-19.551,-0l-0,71.094Z" style="fill-rule:nonzero;"/></svg>
